<?xml version="1.0" encoding="UTF-8"?>
<svg width="82px" height="83px" viewBox="0 0 82 83" version="1.1" xmlns="http://www.w3.org/2000/svg" xmlns:xlink="http://www.w3.org/1999/xlink">
    <!-- Generator: Sketch 61.2 (89653) - https://sketch.com -->
    <title>Group 13</title>
    <desc>Created with Sketch.</desc>
    <defs>
        <filter x="-2.7%" y="-12.5%" width="105.4%" height="125.0%" filterUnits="objectBoundingBox" id="filter-1">
            <feOffset dx="0" dy="-7" in="SourceAlpha" result="shadowOffsetOuter1"></feOffset>
            <feGaussianBlur stdDeviation="6.5" in="shadowOffsetOuter1" result="shadowBlurOuter1"></feGaussianBlur>
            <feColorMatrix values="0 0 0 0 0.474542942   0 0 0 0 0.474542942   0 0 0 0 0.474542942  0 0 0 0.149286685 0" type="matrix" in="shadowBlurOuter1" result="shadowMatrixOuter1"></feColorMatrix>
            <feMerge>
                <feMergeNode in="shadowMatrixOuter1"></feMergeNode>
                <feMergeNode in="SourceGraphic"></feMergeNode>
            </feMerge>
        </filter>
    </defs>
    <g id="Symbols" stroke="none" stroke-width="1" fill="none" fill-rule="evenodd">
        <g id="#-CTA" transform="translate(-319.000000, -38.000000)" fill="#FFFFFF" fill-rule="nonzero">
            <g filter="url(#filter-1)" id="Group-30">
                <g transform="translate(211.000000, 50.000000)">
                    <g id="Group-13" transform="translate(113.000000, 0.000000)">
                        <g id="ico-sale" transform="translate(8.000000, 8.000000)">
                            <path d="M20.1875,42.2868352 L14.6458333,42.2868352 C14.1357727,42.2868352 13.7222222,42.69999 13.7222222,43.2095624 L13.7222222,48.7459261 C13.7222222,49.2559493 14.1357727,49.6686533 14.6458333,49.6686533 L20.1875,49.6686533 C20.6975607,49.6686533 21.1111111,49.2559493 21.1111111,48.7459261 L21.1111111,43.2095624 C21.1111111,42.69999 20.6975607,42.2868352 20.1875,42.2868352 Z M19.2638889,47.8231988 L15.5694444,47.8231988 L15.5694444,44.1322897 L19.2638889,44.1322897 L19.2638889,47.8231988 Z" id="Shape"></path>
                            <path d="M33.9285714,31.7413806 L24.1269841,31.7413806 C23.0444065,31.7413806 22.1666667,32.5676902 22.1666667,33.5868352 L22.1666667,37.2777442 C22.1666667,38.2973399 23.0444065,39.1231988 24.1269841,39.1231988 L33.9285714,39.1231988 C35.0111491,39.1231988 35.8888889,38.2973399 35.8888889,37.2777442 L35.8888889,33.5868352 C35.8888889,32.5676902 35.0111491,31.7413806 33.9285714,31.7413806 Z M33.9285714,34.5095624 L30.0079365,34.5095624 L30.0079365,33.5868352 L33.9285714,33.5868352 L33.9285714,34.5095624 Z M28.047619,33.5868352 L28.047619,34.5095624 L24.1269841,34.5095624 L24.1269841,33.5868352 L28.047619,33.5868352 Z M24.1269841,36.355017 L28.047619,36.355017 L28.047619,37.2777442 L24.1269841,37.2777442 L24.1269841,36.355017 Z M30.0079365,37.2777442 L30.0079365,36.355017 L33.9285714,36.355017 L33.9285714,37.2777442 L30.0079365,37.2777442 Z" id="Shape"></path>
                            <path d="M52.1689454,50.4743878 C51.9324472,49.2262569 51.2053312,48.1254555 50.1499002,47.4175327 C49.0944692,46.7096099 47.7988303,46.4543316 46.5532732,46.7082201 L46.5532732,29.9270217 L48.25606,31.6282602 C49.4139737,32.785121 51.2906561,32.785121 52.4481059,31.6282602 C53.6055558,30.4718628 53.6055558,28.5968868 52.4481059,27.440026 L46.5532732,21.5510166 L46.5532732,9.60852594 C47.6022122,9.60852594 48.4526781,8.75929662 48.4526781,7.71084812 L48.4526781,5.8131703 C48.4526781,4.76518519 47.6022122,3.91549248 46.5532732,3.91549248 L37.0562489,3.91549248 C36.00731,3.91549248 35.156844,4.76518519 35.156844,5.8131703 L35.156844,7.71084812 C35.156844,8.75929662 36.00731,9.60852594 37.0562489,9.60852594 L37.0562489,12.0626275 L30.5196251,5.528704 C29.4076201,4.42234301 27.610234,4.42234301 26.4986927,5.528704 L24.9790759,7.04693889 C22.2700127,2.06599788 16.6956118,-0.648478196 11.0998798,0.28831485 C5.50368401,1.22464462 1.11919349,5.60607518 0.182938966,11.1971826 C-0.753315444,16.78829 1.96455853,22.3566957 6.95096,25.0623692 L4.56974806,27.440026 C3.41229822,28.5968868 3.41229822,30.4718628 4.56974806,31.6282602 C5.72766171,32.785121 7.60434412,32.785121 8.76179396,31.6282602 L10.4645807,29.9270217 L10.4645807,49.8225244 C9.43048099,48.6235033 7.75783609,48.1954139 6.27438973,48.7499844 C4.79047968,49.3045547 3.80970797,50.7236433 3.81666371,52.306277 C1.71878587,52.306277 0.0178539729,54.0056624 0.0178539729,56.1016326 C0.0178539729,56.6260886 0.443086918,57.0504715 0.967556407,57.0504715 L56.0502976,57.0504715 C56.5747671,57.0504715 57,56.6260886 57,56.1016326 C56.9962902,53.2931066 54.9466395,50.9057204 52.1689454,50.4743878 Z M43.6967464,48.5498387 C43.6967464,48.5368661 43.7041659,48.5252837 43.7041659,48.5109213 L43.7041659,42.8178878 C43.7041659,42.2938954 43.278933,41.8690489 42.7544635,41.8690489 L37.0562489,41.8690489 C36.5317794,41.8690489 36.1065465,42.2938954 36.1065465,42.8178878 L36.1065465,48.5109213 C36.1065465,49.0353773 36.5317794,49.4597602 37.0562489,49.4597602 L42.7544635,49.4597602 C42.9274317,49.4555906 43.0957628,49.4027744 43.2399803,49.3073345 C42.9241858,49.9448356 42.7581733,50.6462723 42.7544635,51.3574381 L42.7544635,51.4524147 C40.8935476,51.8374172 39.4407069,53.2926433 39.0599913,55.1527937 L35.156844,55.1527937 L35.156844,40.92021 C35.156844,40.3962175 34.7316111,39.9713711 34.2071416,39.9713711 L22.8107124,39.9713711 C22.2862429,39.9713711 21.8610099,40.3962175 21.8610099,40.92021 L21.8610099,55.1527937 L16.078398,55.1527937 C15.7306065,53.1189057 14.3102264,51.4311028 12.3639856,50.7389323 L12.3639856,28.5853042 L44.6538684,28.5853042 L44.6538684,47.5871007 C44.2903104,47.8604479 43.9680238,48.1847579 43.6967464,48.5498387 L43.6967464,48.5498387 Z M41.8047611,43.7667268 L41.8047611,47.5620824 L38.0059513,47.5620824 L38.0059513,43.7667268 L41.8047611,43.7667268 Z M37.0562489,5.8131703 L46.5532732,5.8131703 L46.5532732,7.71084812 L37.0562489,7.71084812 L37.0562489,5.8131703 Z M38.9556538,9.60852594 L44.6538684,9.60852594 L44.6538684,19.6533387 L38.9556538,13.9603053 L38.9556538,9.60852594 Z M27.8444135,6.87320127 C28.2139999,6.5076574 28.8094188,6.5076574 29.1794689,6.87320127 L51.1079497,28.7817435 C51.5234445,29.1977872 51.5234445,29.8709624 51.1079497,30.2865427 C50.6915274,30.7002699 50.018667,30.7002699 49.601781,30.2865427 L30.5196251,11.2217375 C29.4076201,10.1153765 27.610234,10.1153765 26.4986927,11.2217375 L26.4263519,11.2940123 C26.2951187,10.4790671 26.0882987,9.67802104 25.8082107,8.90199309 L27.8444135,6.87320127 Z M1.91725884,13.4038816 C1.91725884,7.11550733 7.01959084,2.01781465 13.313688,2.01781465 C19.6077852,2.01781465 24.7101173,7.11550733 24.7101173,13.4038816 C24.7101173,19.692256 19.6077852,24.7899485 13.313688,24.7899485 C7.02237323,24.7834624 1.9242147,19.6894761 1.91725884,13.4038816 Z M7.41885536,30.2865427 C7.00289685,30.7016597 6.32910898,30.7016597 5.91268666,30.2865427 C5.49858304,29.8704991 5.49858304,29.1982504 5.91268666,28.7817435 L8.81048485,25.8870435 C9.58721893,26.166877 10.388994,26.3739721 11.2046809,26.5046228 L10.7437414,26.96468 L7.41885536,30.2865427 Z M13.7277917,26.6667779 C20.7350932,26.441614 26.3628221,20.8185389 26.5886547,13.8176088 L27.8444135,12.5662347 C28.2139999,12.2006909 28.8094188,12.2006909 29.1794689,12.5662347 L43.3109298,26.6876264 L13.7069242,26.6876264 L13.7277917,26.6667779 Z M2.17276963,55.1527937 C2.67219808,54.295225 3.75035157,53.9695249 4.64208867,54.4064171 C5.00657414,54.5861776 5.4457188,54.5139027 5.73322626,54.2266566 C6.02119764,53.9398737 6.09400195,53.5015917 5.91454155,53.136511 C5.78516311,52.8789162 5.71745977,52.594913 5.71606858,52.306277 C5.7132863,51.3810664 6.38150952,50.5897496 7.29457789,50.4359339 C8.20811008,50.2825815 9.09845611,50.8116704 9.3989479,51.6868446 C9.52879003,52.087136 9.91321545,52.3489007 10.3338112,52.3224925 C10.3778647,52.3234192 10.4219183,52.3178596 10.4645807,52.306277 C12.1961183,52.3085936 13.7078517,53.4784267 14.1428228,55.1527937 L2.17276963,55.1527937 Z M23.7604148,55.1527937 L23.7604148,41.8690489 L33.2574392,41.8690489 L33.2574392,55.1527937 L23.7604148,55.1527937 Z M41.0173613,55.1527937 C41.4073514,54.0316072 42.4572178,53.2731846 43.6452733,53.2551159 C43.6777338,53.2551159 43.7737243,53.2694782 43.8057211,53.2704049 C44.1071402,53.2824506 44.3955753,53.1508733 44.5843101,52.9159802 C44.7725812,52.681087 44.8384297,52.3706757 44.7614518,52.0797232 C44.6942122,51.84483 44.6580419,51.6020606 44.6538684,51.3574381 C44.6538684,49.7854603 45.9295673,48.5109213 47.5029757,48.5109213 C49.0763841,48.5109213 50.352083,49.7854603 50.352083,51.3574381 C50.352083,51.8818941 50.7773159,52.306277 51.3017854,52.306277 C53.033323,52.3085936 54.5450564,53.4784267 54.9800274,55.1527937 L41.0173613,55.1527937 Z" id="Shape"></path>
                            <path d="M14.1180556,21.1959261 L14.1180556,19.3211786 C15.6482375,19.3211786 16.8888889,18.0624981 16.8888889,16.5090574 L16.8888889,14.6343099 C16.8888889,13.081327 15.6482375,11.8221887 14.1180556,11.8221887 L12.2708333,11.8221887 C11.7607727,11.8221887 11.3472222,11.4029338 11.3472222,10.884815 L11.3472222,9.01006748 C11.3472222,8.49240658 11.7607727,8.07269374 12.2708333,8.07269374 L14.1180556,8.07269374 C14.6281162,8.07269374 15.0416667,8.49240658 15.0416667,9.01006748 L15.0416667,9.94744122 L16.8888889,9.94744122 L16.8888889,9.01006748 C16.8888889,7.45708455 15.6482375,6.19794627 14.1180556,6.19794627 L14.1180556,4.32319879 L12.2708333,4.32319879 L12.2708333,6.19794627 C10.7406515,6.19794627 9.5,7.45708455 9.5,9.01006748 L9.5,10.884815 C9.5,12.4382557 10.7406515,13.6969362 12.2708333,13.6969362 L14.1180556,13.6969362 C14.6281162,13.6969362 15.0416667,14.116649 15.0416667,14.6343099 L15.0416667,16.5090574 C15.0416667,17.0271762 14.6281162,17.4464311 14.1180556,17.4464311 L12.2708333,17.4464311 C11.7607727,17.4464311 11.3472222,17.0271762 11.3472222,16.5090574 L11.3472222,15.5716836 L9.5,15.5716836 L9.5,16.5090574 C9.5,18.0624981 10.7406515,19.3211786 12.2708333,19.3211786 L12.2708333,21.1959261 L14.1180556,21.1959261 Z" id="Path"></path>
                            <path d="M26.3888889,44.3959261 L24.2777778,44.3959261 L24.2777778,46.1535018 L25.3333333,46.1535018 L25.3333333,47.9110776 L24.2777778,47.9110776 L24.2777778,49.6686533 L26.3888889,49.6686533 C26.9718154,49.6686533 27.4444444,49.2756018 27.4444444,48.7898655 L27.4444444,45.2747139 C27.4444444,44.7894069 26.9718154,44.3959261 26.3888889,44.3959261 Z" id="Path"></path>
                        </g>
                    </g>
                </g>
            </g>
        </g>
    </g>
</svg>