<?xml version="1.0" encoding="utf-8"?>
<svg width="512" height="512" viewBox="48.683 193.279 409.548 126.169" style="overflow: visible;" data-bbox="63.99999999999999 216.79490880009766 377.1463788808357 69.65707748070386" xmlns="http://www.w3.org/2000/svg">
  <defs transform="matrix(1, 0, 0, 1, 0, 0)" data-uid="o_f6blmbl12_5">
    <linearGradient x1="50%" y1="0%" x2="50%" y2="100%" id="o_f6blmbl12_3" gradientUnits="objectBoundingBox" data-uid="o_f6blmbl12_6">
      <stop offset="0" stop-color="rgb(255, 77, 126)" stop-opacity="1.00" data-uid="o_f6blmbl12_7"/>
      <stop offset="0.92" stop-color="rgb(248, 136, 125)" stop-opacity="1" data-uid="o_f6blmbl12_8"/>
      <stop offset="1" stop-color="rgb(255, 106, 91)" stop-opacity="1" data-uid="o_f6blmbl12_9"/>
    </linearGradient>
  </defs>
  <g transform="matrix(0.2504974603652954, 0, 0, 0.2504974603652954, 46.014286041259766, 210.8518524169922)" data-uid="o_f6blmbl12_10">
    <path class="st1" d="M241.1 172.8v-27.2c0-8.2 6.7-14.9 14.9-14.9c8.2 0 14.9 6.7 14.9 14.9v27.2c24.3 0.8 46.9 3.4 67.7 7.3v-56.8 c2.4 1.2 5 1.8 7.6 1.8c5.1 0 10.2-2.3 13.5-6.7c5.6-7.4 4.1-18-3.4-23.6L266 27.1c-6-4.5-14.2-4.5-20.2 0l-90.3 67.7 c-7.4 5.6-9 16.2-3.4 23.6c5 6.7 14 8.6 21.1 4.9v56.8C194.2 176.2 216.8 173.6 241.1 172.8z" fill="url(#o_f6blmbl12_3)" data-uid="o_f6blmbl12_11"/>
    <path class="st2" d="M256 301.8c55.7-32.8 118.2-54.8 184.3-65c-40.1-21.5-102.2-44.5-184.3-44.5c-79.8 0-141.2 21.4-184.2 44.5 C137.9 247.1 200.3 269 256 301.8z" fill="#ffd9d9" data-uid="o_f6blmbl12_12"/>
  </g>
  <path text="ntho's House" fill="rgba(62, 69, 85, 1)" space="preserve" text-anchor="middle" offset="0.5" font-scale="contain" font-size="48" font-family="Baloo Bhai 2" data-fl-textpath="" font-style="normal" font-weight="400" data-uid="o_f6blmbl12_13" d="M-113.88-14.45L-113.88-14.45Q-113.88-17.14 -115.39-18.38Q-116.9-19.63 -119.45-19.63L-119.45-19.63Q-121.37-19.63 -122.86-19.15Q-124.34-18.67 -125.4-18.05L-125.4-18.05L-125.4-0.1Q-125.64 0 -126.12 0.12Q-126.60000000000001 0.24 -127.18 0.24L-127.18 0.24Q-129.24 0.24 -129.24-1.49L-129.24-1.49L-129.24-17.86Q-129.24-18.86 -128.83-19.51Q-128.42000000000002-20.16 -127.42-20.78L-127.42-20.78Q-126.17-21.55 -124.10000000000001-22.18Q-122.04-22.8 -119.45-22.8L-119.45-22.8Q-115.08-22.8 -112.56-20.83Q-110.04-18.86 -110.04-14.64L-110.04-14.64L-110.04-0.1Q-110.28 0 -110.78 0.12Q-111.29 0.24 -111.82000000000001 0.24L-111.82000000000001 0.24Q-113.88 0.24 -113.88-1.49L-113.88-1.49L-113.88-14.45ZM-95.25999999999999 0.62L-95.25999999999999 0.62Q-98.62 0.62 -100.7-0.86Q-102.78999999999999-2.35 -102.78999999999999-5.81L-102.78999999999999-5.81L-102.78999999999999-28.61Q-102.55-28.7 -102.05-28.82Q-101.53999999999999-28.94 -100.97-28.94L-100.97-28.94Q-98.95-28.94 -98.95-27.22L-98.95-27.22L-98.95-21.7L-91.08-21.7Q-90.94-21.46 -90.78999999999999-21.05Q-90.65-20.64 -90.65-20.16L-90.65-20.16Q-90.65-18.53 -92.09-18.53L-92.09-18.53L-98.95-18.53L-98.95-6.05Q-98.95-4.13 -97.87-3.34Q-96.78999999999999-2.54 -94.82-2.54L-94.82-2.54Q-94.00999999999999-2.54 -93-2.83Q-91.99-3.12 -91.32-3.5L-91.32-3.5Q-91.03-3.22 -90.78999999999999-2.78Q-90.55-2.35 -90.55-1.78L-90.55-1.78Q-90.55-0.72 -91.8-0.05Q-93.05 0.62 -95.25999999999999 0.62ZM-81.044-0.1L-81.044-0.1Q-81.284 0 -81.76400000000001 0.12Q-82.244 0.24 -82.824 0.24L-82.824 0.24Q-84.884 0.24 -84.884-1.49L-84.884-1.49L-84.884-31.1Q-84.644-31.2 -84.144-31.32Q-83.644-31.44 -83.06400000000001-31.44L-83.06400000000001-31.44Q-81.044-31.44 -81.044-29.71L-81.044-29.71L-81.044-21.07Q-79.894-21.74 -78.334-22.27Q-76.774-22.8 -74.804-22.8L-74.804-22.8Q-72.79400000000001-22.8 -71.134-22.27Q-69.48400000000001-21.74 -68.284-20.66Q-67.084-19.58 -66.404-17.93Q-65.73400000000001-16.27 -65.73400000000001-14.06L-65.73400000000001-14.06L-65.73400000000001-0.1Q-65.974 0 -66.48400000000001 0.12Q-66.98400000000001 0.24 -67.51400000000001 0.24L-67.51400000000001 0.24Q-69.574 0.24 -69.574-1.49L-69.574-1.49L-69.574-13.97Q-69.574-16.85 -71.164-18.24Q-72.744-19.63 -75.334-19.63L-75.334-19.63Q-77.01400000000001-19.63 -78.48400000000001-19.03Q-79.944-18.43 -81.044-17.57L-81.044-17.57L-81.044-0.1ZM-37.946-11.09L-37.946-11.09Q-37.946-8.4 -38.716-6.24Q-39.476-4.08 -40.896-2.54Q-42.316-1.01 -44.32600000000001-0.19Q-46.346000000000004 0.62 -48.836 0.62L-48.836 0.62Q-51.336 0.62 -53.356-0.19Q-55.366-1.01 -56.806000000000004-2.54Q-58.246-4.08 -59.016000000000005-6.24Q-59.786-8.4 -59.786-11.09L-59.786-11.09Q-59.786-13.78 -58.996-15.94Q-58.196000000000005-18.1 -56.756-19.63Q-55.316-21.17 -53.306000000000004-21.98Q-51.286-22.8 -48.836-22.8L-48.836-22.8Q-46.396-22.8 -44.376000000000005-21.98Q-42.356-21.17 -40.946-19.63Q-39.526-18.1 -38.736000000000004-15.94Q-37.946-13.78 -37.946-11.09ZM-48.836-19.63L-48.836-19.63Q-52.106-19.63 -53.976-17.38Q-55.846000000000004-15.12 -55.846000000000004-11.09L-55.846000000000004-11.09Q-55.846000000000004-7.01 -53.996-4.78Q-52.156000000000006-2.54 -48.836-2.54L-48.836-2.54Q-45.526-2.54 -43.706-4.8Q-41.876000000000005-7.06 -41.876000000000005-11.09L-41.876000000000005-11.09Q-41.876000000000005-15.12 -43.726-17.38Q-45.57600000000001-19.63 -48.836-19.63ZM-30.651999999999997-20.06L-30.651999999999997-20.06Q-30.982-19.97 -31.392-19.87Q-31.802-19.78 -32.232-19.78L-32.232-19.78Q-33.722-19.78 -33.812-21.17L-33.812-21.17L-34.102-29.52Q-33.722-29.76 -33.262-29.88Q-32.812-30 -32.182-30L-32.182-30Q-30.362-30 -30.362-28.08L-30.362-28.08Q-30.362-27.46 -30.381999999999998-26.45Q-30.412-25.44 -30.451999999999998-24.31Q-30.502-23.18 -30.552-22.06Q-30.601999999999997-20.93 -30.651999999999997-20.06ZM-9.670000000000002-5.9L-9.670000000000002-5.9Q-9.670000000000002-2.83 -11.930000000000003-1.1Q-14.180000000000001 0.62 -18.46 0.62L-18.46 0.62Q-20.28 0.62 -21.82 0.31Q-23.35 0 -24.43-0.5Q-25.51-1.01 -26.110000000000003-1.66Q-26.71-2.3 -26.71-2.98L-26.71-2.98Q-26.71-3.55 -26.400000000000002-4.08Q-26.090000000000003-4.61 -25.46-4.99L-25.46-4.99Q-24.17-4.03 -22.44-3.29Q-20.71-2.54 -18.5-2.54L-18.5-2.54Q-13.510000000000002-2.54 -13.510000000000002-5.9L-13.510000000000002-5.9Q-13.510000000000002-8.64 -16.82-9.46L-16.82-9.46L-20.810000000000002-10.51Q-23.740000000000002-11.28 -25.080000000000002-12.74Q-26.42-14.21 -26.42-16.51L-26.42-16.51Q-26.42-17.76 -25.92-18.91Q-25.42-20.06 -24.360000000000003-20.93Q-23.3-21.79 -21.740000000000002-22.3Q-20.18-22.8 -18.07-22.8L-18.07-22.8Q-14.71-22.8 -12.650000000000002-21.82Q-10.580000000000002-20.83 -10.580000000000002-19.54L-10.580000000000002-19.54Q-10.580000000000002-18.91 -10.900000000000002-18.43Q-11.21-17.95 -11.740000000000002-17.71L-11.740000000000002-17.71Q-12.600000000000001-18.29 -14.180000000000001-18.96Q-15.770000000000001-19.63 -17.93-19.63L-17.93-19.63Q-20.090000000000003-19.63 -21.360000000000003-18.82Q-22.630000000000003-18 -22.630000000000003-16.51L-22.630000000000003-16.51Q-22.630000000000003-15.41 -21.910000000000004-14.64Q-21.19-13.87 -19.51-13.49L-19.51-13.49L-16.200000000000003-12.67Q-12.940000000000001-11.86 -11.3-10.25Q-9.670000000000002-8.64 -9.670000000000002-5.9ZM 29.256-0.1L 29.256-0.1Q 28.966 0  28.486000000000004 0.12Q 28.006 0.24  27.436 0.24L 27.436 0.24Q 25.316000000000003 0.24  25.316000000000003-1.54L 25.316000000000003-1.54L 25.316000000000003-13.15L 10.346000000000002-13.15L 10.346000000000002-0.1Q 10.056000000000001 0  9.576 0.12Q 9.096 0.24  8.516000000000002 0.24L 8.516000000000002 0.24Q 6.406000000000001 0.24  6.406000000000001-1.54L 6.406000000000001-1.54L 6.406000000000001-29.09Q 6.646000000000001-29.18  7.156000000000001-29.3Q 7.656000000000001-29.42  8.236-29.42L 8.236-29.42Q 10.346000000000002-29.42  10.346000000000002-27.65L 10.346000000000002-27.65L 10.346000000000002-16.42L 25.316000000000003-16.42L 25.316000000000003-29.09Q 25.556000000000004-29.18  26.066000000000003-29.3Q 26.566000000000003-29.42  27.146-29.42L 27.146-29.42Q 29.256-29.42  29.256-27.65L 29.256-27.65L 29.256-0.1ZM 57.718-11.09L 57.718-11.09Q 57.718-8.4  56.948-6.24Q 56.188-4.08  54.768-2.54Q 53.348-1.01  51.337999999999994-0.19Q 49.318 0.62  46.828 0.62L 46.828 0.62Q 44.328 0.62  42.308-0.19Q 40.298-1.01  38.858-2.54Q 37.418-4.08  36.647999999999996-6.24Q 35.878-8.4  35.878-11.09L 35.878-11.09Q 35.878-13.78  36.668-15.94Q 37.467999999999996-18.1  38.908-19.63Q 40.348-21.17  42.358-21.98Q 44.378-22.8  46.828-22.8L 46.828-22.8Q 49.268-22.8  51.288-21.98Q 53.308-21.17  54.718-19.63Q 56.138-18.1  56.928-15.94Q 57.718-13.78  57.718-11.09ZM 46.828-19.63L 46.828-19.63Q 43.558-19.63  41.688-17.38Q 39.818-15.12  39.818-11.09L 39.818-11.09Q 39.818-7.01  41.668-4.78Q 43.507999999999996-2.54  46.828-2.54L 46.828-2.54Q 50.138-2.54  51.958-4.8Q 53.788-7.06  53.788-11.09L 53.788-11.09Q 53.788-15.12  51.938-17.38Q 50.087999999999994-19.63  46.828-19.63ZM 63.672000000000004-8.11L 63.672000000000004-22.08Q 63.912000000000006-22.18  64.412-22.3Q 64.922-22.42  65.492-22.42L 65.492-22.42Q 67.512-22.42  67.512-20.64L 67.512-20.64L 67.512-8.3Q 67.512-5.18  69.142-3.86Q 70.772-2.54  73.652-2.54L 73.652-2.54Q 75.572-2.54  76.922-2.95Q 78.262-3.36  79.03200000000001-3.79L 79.03200000000001-3.79L 79.03200000000001-22.08Q 79.272-22.18  79.772-22.3Q 80.28200000000001-22.42  80.812-22.42L 80.812-22.42Q 82.872-22.42  82.872-20.64L 82.872-20.64L 82.872-3.94Q 82.872-2.93  82.612-2.33Q 82.342-1.73  81.33200000000001-1.15L 81.33200000000001-1.15Q 80.232-0.53  78.292 0.05Q 76.342 0.62  73.612 0.62L 73.612 0.62Q 68.812 0.62  66.242-1.49Q 63.672000000000004-3.6  63.672000000000004-8.11L 63.672000000000004-8.11ZM 105.72200000000001-5.9L 105.72200000000001-5.9Q 105.72200000000001-2.83  103.462-1.1Q 101.212 0.62  96.93200000000002 0.62L 96.93200000000002 0.62Q 95.11200000000001 0.62  93.572 0.31Q 92.042 0  90.962-0.5Q 89.882-1.01  89.28200000000001-1.66Q 88.682-2.3  88.682-2.98L 88.682-2.98Q 88.682-3.55  88.992-4.08Q 89.302-4.61  89.932-4.99L 89.932-4.99Q 91.22200000000001-4.03  92.95200000000001-3.29Q 94.68200000000002-2.54  96.89200000000001-2.54L 96.89200000000001-2.54Q 101.882-2.54  101.882-5.9L 101.882-5.9Q 101.882-8.64  98.572-9.46L 98.572-9.46L 94.58200000000001-10.51Q 91.65200000000002-11.28  90.31200000000001-12.74Q 88.97200000000001-14.21  88.97200000000001-16.51L 88.97200000000001-16.51Q 88.97200000000001-17.76  89.47200000000001-18.91Q 89.97200000000001-20.06  91.03200000000001-20.93Q 92.09200000000001-21.79  93.65200000000002-22.3Q 95.212-22.8  97.322-22.8L 97.322-22.8Q 100.68200000000002-22.8  102.742-21.82Q 104.81200000000001-20.83  104.81200000000001-19.54L 104.81200000000001-19.54Q 104.81200000000001-18.91  104.492-18.43Q 104.18200000000002-17.95  103.65200000000002-17.71L 103.65200000000002-17.71Q 102.792-18.29  101.212-18.96Q 99.62200000000001-19.63  97.462-19.63L 97.462-19.63Q 95.302-19.63  94.03200000000001-18.82Q 92.76200000000001-18  92.76200000000001-16.51L 92.76200000000001-16.51Q 92.76200000000001-15.41  93.48200000000001-14.64Q 94.20200000000001-13.87  95.882-13.49L 95.882-13.49L 99.19200000000001-12.67Q 102.45200000000001-11.86  104.09200000000001-10.25Q 105.72200000000001-8.64  105.72200000000001-5.9ZM 129.048-10.9L 114.26800000000001-8.83Q 115.558-2.54  122.51800000000001-2.54L 122.51800000000001-2.54Q 124.53800000000001-2.54  126.168-3.22Q 127.79800000000002-3.89  128.758-4.66L 128.758-4.66Q 129.90800000000002-3.98  129.90800000000002-2.83L 129.90800000000002-2.83Q 129.90800000000002-2.16  129.30800000000002-1.54Q 128.70800000000003-0.91  127.67800000000001-0.43Q 126.64800000000001 0.05  125.27800000000002 0.34Q 123.90800000000002 0.62  122.32800000000002 0.62L 122.32800000000002 0.62Q 116.75800000000001 0.62  113.51800000000001-2.4Q 110.278-5.42  110.278-11.23L 110.278-11.23Q 110.278-13.97  111.06800000000001-16.1Q 111.86800000000001-18.24  113.278-19.73Q 114.69800000000001-21.22  116.668-22.01Q 118.62800000000001-22.8  120.93800000000002-22.8L 120.93800000000002-22.8Q 123.09800000000001-22.8  124.918-22.08Q 126.74800000000002-21.36  128.068-20.04Q 129.388-18.72  130.12800000000001-16.92Q 130.86800000000002-15.12  130.86800000000002-12.96L 130.86800000000002-12.96Q 130.86800000000002-11.9  130.388-11.45Q 129.90800000000002-10.99  129.048-10.9L 129.048-10.9ZM 120.888-19.68L 120.888-19.68Q 117.95800000000001-19.68  116.03800000000001-17.64Q 114.11800000000001-15.6  114.028-11.81L 114.028-11.81L 127.22800000000001-13.63Q 126.98800000000001-16.27  125.37800000000001-17.98Q 123.76800000000001-19.68  120.888-19.68Z" transform="matrix(0.9929604530334473, 0, 0, 0.9929604530334473, 311.1996154785156, 255.38436889648438)"/>
  <path text="Real Estate" fill="rgba(141, 151, 173, 1)" space="preserve" text-anchor="middle" offset="0.5" font-scale="contain" font-size="48" font-family="Baloo Bhai 2" transform="matrix(0.5116697549819946, 0, 0, 0.47456127405166626, 252.334716796875, 286.134033203125)" data-fl-textpath="" font-style="normal" font-weight="400" letter-spacing="5" data-uid="o_f6blmbl12_14" d="M-131.82199999999997-11.04L-131.82199999999997-0.1Q-132.112 0 -132.59199999999998 0.12Q-133.07199999999997 0.24 -133.652 0.24L-133.652 0.24Q-135.76199999999997 0.24 -135.76199999999997-1.54L-135.76199999999997-1.54L-135.76199999999997-27.07Q-135.76199999999997-27.84 -135.37199999999999-28.25Q-134.992-28.66 -134.17199999999997-28.9L-134.17199999999997-28.9Q-132.78199999999998-29.33 -130.742-29.52Q-128.70199999999997-29.71 -126.78199999999998-29.71L-126.78199999999998-29.71Q-120.73199999999999-29.71 -117.78199999999998-27.29Q-114.83199999999998-24.86 -114.83199999999998-20.4L-114.83199999999998-20.4Q-114.83199999999998-17.09 -116.53199999999998-14.83Q-118.24199999999999-12.58 -121.69199999999998-11.62L-121.69199999999998-11.62Q-120.49199999999999-10.08 -119.29199999999999-8.54Q-118.09199999999998-7.01 -117.01199999999999-5.64Q-115.93199999999999-4.27 -115.09199999999998-3.17Q-114.25199999999998-2.06 -113.77199999999998-1.44L-113.77199999999998-1.44Q-113.97199999999998-0.62 -114.61199999999998-0.14Q-115.26199999999999 0.34 -115.93199999999999 0.34L-115.93199999999999 0.34Q-116.75199999999998 0.34 -117.28199999999998-0.05Q-117.81199999999998-0.43 -118.38199999999998-1.25L-118.38199999999998-1.25L-125.39199999999998-11.04L-131.82199999999997-11.04ZM-131.87199999999999-14.3L-126.35199999999998-14.3Q-122.80199999999998-14.3 -120.78199999999998-15.84Q-118.77199999999998-17.38 -118.77199999999998-20.4L-118.77199999999998-20.4Q-118.77199999999998-23.42 -120.88199999999998-24.94Q-122.99199999999999-26.45 -126.93199999999999-26.45L-126.93199999999999-26.45Q-128.22199999999998-26.45 -129.54199999999997-26.33Q-130.862-26.21 -131.87199999999999-26.02L-131.87199999999999-26.02L-131.87199999999999-14.3ZM-85.63999999999997-10.9L-100.41999999999997-8.83Q-99.12999999999998-2.54 -92.16999999999997-2.54L-92.16999999999997-2.54Q-90.14999999999998-2.54 -88.51999999999998-3.22Q-86.88999999999997-3.89 -85.92999999999998-4.66L-85.92999999999998-4.66Q-84.77999999999997-3.98 -84.77999999999997-2.83L-84.77999999999997-2.83Q-84.77999999999997-2.16 -85.37999999999998-1.54Q-85.97999999999998-0.91 -87.00999999999998-0.43Q-88.03999999999998 0.05 -89.40999999999997 0.34Q-90.77999999999997 0.62 -92.35999999999997 0.62L-92.35999999999997 0.62Q-97.92999999999998 0.62 -101.16999999999997-2.4Q-104.40999999999998-5.42 -104.40999999999998-11.23L-104.40999999999998-11.23Q-104.40999999999998-13.97 -103.61999999999998-16.1Q-102.81999999999998-18.24 -101.40999999999998-19.73Q-99.98999999999998-21.22 -98.01999999999998-22.01Q-96.05999999999997-22.8 -93.74999999999997-22.8L-93.74999999999997-22.8Q-91.58999999999997-22.8 -89.76999999999998-22.08Q-87.93999999999997-21.36 -86.61999999999998-20.04Q-85.29999999999998-18.72 -84.55999999999997-16.92Q-83.81999999999998-15.12 -83.81999999999998-12.96L-83.81999999999998-12.96Q-83.81999999999998-11.9 -84.29999999999998-11.45Q-84.77999999999997-10.99 -85.63999999999997-10.9L-85.63999999999997-10.9ZM-93.79999999999998-19.68L-93.79999999999998-19.68Q-96.72999999999998-19.68 -98.64999999999998-17.64Q-100.56999999999998-15.6 -100.65999999999998-11.81L-100.65999999999998-11.81L-87.45999999999998-13.63Q-87.69999999999997-16.27 -89.30999999999997-17.98Q-90.91999999999997-19.68 -93.79999999999998-19.68ZM-65.32799999999999-2.5L-65.32799999999999-2.5Q-63.307999999999986-2.5 -61.987999999999985-2.9Q-60.667999999999985-3.31 -60.097999999999985-3.7L-60.097999999999985-3.7L-60.097999999999985-10.66L-66.04799999999999-10.03Q-68.54799999999999-9.79 -69.74799999999999-8.9Q-70.94799999999998-8.02 -70.94799999999998-6.29L-70.94799999999998-6.29Q-70.94799999999998-4.46 -69.54799999999999-3.48Q-68.15799999999999-2.5 -65.32799999999999-2.5ZM-65.37799999999999-22.8L-65.37799999999999-22.8Q-61.197999999999986-22.8 -58.74799999999998-20.93Q-56.307999999999986-19.06 -56.307999999999986-15.02L-56.307999999999986-15.02L-56.307999999999986-3.65Q-56.307999999999986-2.59 -56.707999999999984-2.04Q-57.11799999999998-1.49 -57.93799999999999-1.01L-57.93799999999999-1.01Q-59.08799999999998-0.34 -60.987999999999985 0.17Q-62.877999999999986 0.67 -65.32799999999999 0.67L-65.32799999999999 0.67Q-69.83799999999998 0.67 -72.30799999999998-1.1Q-74.78799999999998-2.88 -74.78799999999998-6.24L-74.78799999999998-6.24Q-74.78799999999998-9.41 -72.71799999999999-11.02Q-70.65799999999999-12.62 -66.90799999999999-13.01L-66.90799999999999-13.01L-60.097999999999985-13.68L-60.097999999999985-15.02Q-60.097999999999985-17.42 -61.53799999999998-18.53Q-62.97799999999999-19.63 -65.42799999999998-19.63L-65.42799999999998-19.63Q-67.43799999999999-19.63 -69.21799999999999-19.06Q-70.98799999999999-18.48 -72.38799999999999-17.76L-72.38799999999999-17.76Q-72.76799999999999-18.1 -73.07799999999999-18.53Q-73.38799999999999-18.96 -73.38799999999999-19.49L-73.38799999999999-19.49Q-73.38799999999999-20.16 -73.05799999999998-20.59Q-72.71799999999999-21.02 -71.99799999999999-21.41L-71.99799999999999-21.41Q-70.70799999999998-22.08 -69.02799999999999-22.44Q-67.34799999999998-22.8 -65.37799999999999-22.8ZM-40.075999999999986-0.1L-40.075999999999986-0.1Q-40.31599999999999 0 -40.795999999999985 0.12Q-41.27599999999999 0.24 -41.84599999999999 0.24L-41.84599999999999 0.24Q-43.91599999999999 0.24 -43.91599999999999-1.49L-43.91599999999999-1.49L-43.91599999999999-31.1Q-43.67599999999999-31.2 -43.16599999999998-31.32Q-42.66599999999998-31.44 -42.13599999999999-31.44L-42.13599999999999-31.44Q-40.075999999999986-31.44 -40.075999999999986-29.71L-40.075999999999986-29.71L-40.075999999999986-0.1ZM-10.107999999999986 0L-10.107999999999986 0Q-11.067999999999985 0 -11.637999999999986-0.58Q-12.217999999999986-1.15 -12.217999999999986-2.11L-12.217999999999986-2.11L-12.217999999999986-27.07Q-12.217999999999986-28.03 -11.637999999999986-28.61Q-11.067999999999985-29.18 -10.107999999999986-29.18L-10.107999999999986-29.18L 5.832000000000015-29.18Q 5.9720000000000155-28.94  6.122000000000014-28.54Q 6.262000000000015-28.13  6.262000000000015-27.65L 6.262000000000015-27.65Q 6.262000000000015-26.83  5.882000000000016-26.35Q 5.492000000000015-25.87  4.772000000000016-25.87L 4.772000000000016-25.87L-8.327999999999985-25.87L-8.327999999999985-16.61L 4.342000000000013-16.61Q 4.492000000000015-16.37  4.632000000000016-15.96Q 4.772000000000016-15.55  4.772000000000016-15.07L 4.772000000000016-15.07Q 4.772000000000016-14.26  4.392000000000014-13.8Q 4.012000000000015-13.34  3.292000000000016-13.34L 3.292000000000016-13.34L-8.327999999999985-13.34L-8.327999999999985-3.26L 6.072000000000013-3.26Q 6.212000000000014-3.02  6.362000000000016-2.64Q 6.502000000000013-2.26  6.502000000000013-1.73L 6.502000000000013-1.73Q 6.502000000000013-0.91  6.122000000000014-0.46Q 5.7320000000000135 0  5.012000000000015 0L 5.012000000000015 0L-10.107999999999986 0ZM 33.250000000000014-5.9L 33.250000000000014-5.9Q 33.250000000000014-2.83  30.990000000000016-1.1Q 28.740000000000016 0.62  24.460000000000015 0.62L 24.460000000000015 0.62Q 22.640000000000015 0.62  21.100000000000016 0.31Q 19.570000000000014 0  18.490000000000016-0.5Q 17.410000000000018-1.01  16.810000000000016-1.66Q 16.210000000000015-2.3  16.210000000000015-2.98L 16.210000000000015-2.98Q 16.210000000000015-3.55  16.520000000000017-4.08Q 16.830000000000016-4.61  17.460000000000015-4.99L 17.460000000000015-4.99Q 18.750000000000014-4.03  20.480000000000018-3.29Q 22.210000000000015-2.54  24.420000000000016-2.54L 24.420000000000016-2.54Q 29.410000000000018-2.54  29.410000000000018-5.9L 29.410000000000018-5.9Q 29.410000000000018-8.64  26.100000000000016-9.46L 26.100000000000016-9.46L 22.110000000000014-10.51Q 19.180000000000014-11.28  17.840000000000018-12.74Q 16.500000000000014-14.21  16.500000000000014-16.51L 16.500000000000014-16.51Q 16.500000000000014-17.76  17.000000000000014-18.91Q 17.500000000000014-20.06  18.560000000000016-20.93Q 19.620000000000015-21.79  21.180000000000014-22.3Q 22.740000000000016-22.8  24.850000000000016-22.8L 24.850000000000016-22.8Q 28.210000000000015-22.8  30.270000000000017-21.82Q 32.34000000000002-20.83  32.34000000000002-19.54L 32.34000000000002-19.54Q 32.34000000000002-18.91  32.02000000000002-18.43Q 31.710000000000015-17.95  31.180000000000014-17.71L 31.180000000000014-17.71Q 30.320000000000014-18.29  28.740000000000016-18.96Q 27.150000000000016-19.63  24.990000000000016-19.63L 24.990000000000016-19.63Q 22.830000000000016-19.63  21.560000000000016-18.82Q 20.290000000000017-18  20.290000000000017-16.51L 20.290000000000017-16.51Q 20.290000000000017-15.41  21.010000000000016-14.64Q 21.730000000000018-13.87  23.410000000000018-13.49L 23.410000000000018-13.49L 26.720000000000017-12.67Q 29.980000000000018-11.86  31.62000000000002-10.25Q 33.250000000000014-8.64  33.250000000000014-5.9ZM 51.63600000000002 0.62L 51.63600000000002 0.62Q 48.27600000000002 0.62  46.19600000000002-0.86Q 44.106000000000016-2.35  44.106000000000016-5.81L 44.106000000000016-5.81L 44.106000000000016-28.61Q 44.34600000000002-28.7  44.84600000000002-28.82Q 45.356000000000016-28.94  45.926000000000016-28.94L 45.926000000000016-28.94Q 47.94600000000002-28.94  47.94600000000002-27.22L 47.94600000000002-27.22L 47.94600000000002-21.7L 55.81600000000002-21.7Q 55.95600000000002-21.46  56.106000000000016-21.05Q 56.246000000000016-20.64  56.246000000000016-20.16L 56.246000000000016-20.16Q 56.246000000000016-18.53  54.80600000000002-18.53L 54.80600000000002-18.53L 47.94600000000002-18.53L 47.94600000000002-6.05Q 47.94600000000002-4.13  49.02600000000002-3.34Q 50.106000000000016-2.54  52.076000000000015-2.54L 52.076000000000015-2.54Q 52.88600000000002-2.54  53.896000000000015-2.83Q 54.90600000000002-3.12  55.576000000000015-3.5L 55.576000000000015-3.5Q 55.866000000000014-3.22  56.106000000000016-2.78Q 56.34600000000002-2.35  56.34600000000002-1.78L 56.34600000000002-1.78Q 56.34600000000002-0.72  55.09600000000002-0.05Q 53.84600000000002 0.62  51.63600000000002 0.62ZM 74.83200000000002-2.5L 74.83200000000002-2.5Q 76.85200000000003-2.5  78.17200000000003-2.9Q 79.49200000000002-3.31  80.06200000000003-3.7L 80.06200000000003-3.7L 80.06200000000003-10.66L 74.11200000000002-10.03Q 71.61200000000002-9.79  70.41200000000002-8.9Q 69.21200000000003-8.02  69.21200000000003-6.29L 69.21200000000003-6.29Q 69.21200000000003-4.46  70.61200000000002-3.48Q 72.00200000000002-2.5  74.83200000000002-2.5ZM 74.78200000000002-22.8L 74.78200000000002-22.8Q 78.96200000000003-22.8  81.41200000000003-20.93Q 83.85200000000003-19.06  83.85200000000003-15.02L 83.85200000000003-15.02L 83.85200000000003-3.65Q 83.85200000000003-2.59  83.45200000000003-2.04Q 83.04200000000003-1.49  82.22200000000002-1.01L 82.22200000000002-1.01Q 81.07200000000003-0.34  79.17200000000003 0.17Q 77.28200000000002 0.67  74.83200000000002 0.67L 74.83200000000002 0.67Q 70.32200000000003 0.67  67.85200000000003-1.1Q 65.37200000000003-2.88  65.37200000000003-6.24L 65.37200000000003-6.24Q 65.37200000000003-9.41  67.44200000000002-11.02Q 69.50200000000002-12.62  73.25200000000002-13.01L 73.25200000000002-13.01L 80.06200000000003-13.68L 80.06200000000003-15.02Q 80.06200000000003-17.42  78.62200000000003-18.53Q 77.18200000000003-19.63  74.73200000000003-19.63L 74.73200000000003-19.63Q 72.72200000000002-19.63  70.94200000000002-19.06Q 69.17200000000003-18.48  67.77200000000002-17.76L 67.77200000000002-17.76Q 67.39200000000002-18.1  67.08200000000002-18.53Q 66.77200000000002-18.96  66.77200000000002-19.49L 66.77200000000002-19.49Q 66.77200000000002-20.16  67.10200000000003-20.59Q 67.44200000000002-21.02  68.16200000000002-21.41L 68.16200000000002-21.41Q 69.45200000000003-22.08  71.13200000000003-22.44Q 72.81200000000003-22.8  74.78200000000002-22.8ZM 103.44400000000002 0.62L 103.44400000000002 0.62Q 100.08400000000003 0.62  98.00400000000002-0.86Q 95.91400000000003-2.35  95.91400000000003-5.81L 95.91400000000003-5.81L 95.91400000000003-28.61Q 96.15400000000002-28.7  96.65400000000002-28.82Q 97.16400000000003-28.94  97.73400000000002-28.94L 97.73400000000002-28.94Q 99.75400000000002-28.94  99.75400000000002-27.22L 99.75400000000002-27.22L 99.75400000000002-21.7L 107.62400000000002-21.7Q 107.76400000000002-21.46  107.91400000000003-21.05Q 108.05400000000003-20.64  108.05400000000003-20.16L 108.05400000000003-20.16Q 108.05400000000003-18.53  106.61400000000002-18.53L 106.61400000000002-18.53L 99.75400000000002-18.53L 99.75400000000002-6.05Q 99.75400000000002-4.13  100.83400000000003-3.34Q 101.91400000000003-2.54  103.88400000000003-2.54L 103.88400000000003-2.54Q 104.69400000000002-2.54  105.70400000000002-2.83Q 106.71400000000003-3.12  107.38400000000003-3.5L 107.38400000000003-3.5Q 107.67400000000002-3.22  107.91400000000003-2.78Q 108.15400000000002-2.35  108.15400000000002-1.78L 108.15400000000002-1.78Q 108.15400000000002-0.72  106.90400000000002-0.05Q 105.65400000000002 0.62  103.44400000000002 0.62ZM 136.24000000000004-10.9L 121.46000000000004-8.83Q 122.75000000000003-2.54  129.71000000000004-2.54L 129.71000000000004-2.54Q 131.73000000000002-2.54  133.36000000000004-3.22Q 134.99000000000004-3.89  135.95000000000005-4.66L 135.95000000000005-4.66Q 137.10000000000002-3.98  137.10000000000002-2.83L 137.10000000000002-2.83Q 137.10000000000002-2.16  136.50000000000003-1.54Q 135.90000000000003-0.91  134.87000000000003-0.43Q 133.84000000000003 0.05  132.47000000000003 0.34Q 131.10000000000002 0.62  129.52000000000004 0.62L 129.52000000000004 0.62Q 123.95000000000003 0.62  120.71000000000004-2.4Q 117.47000000000003-5.42  117.47000000000003-11.23L 117.47000000000003-11.23Q 117.47000000000003-13.97  118.26000000000003-16.1Q 119.06000000000003-18.24  120.47000000000003-19.73Q 121.89000000000003-21.22  123.86000000000003-22.01Q 125.82000000000004-22.8  128.13000000000002-22.8L 128.13000000000002-22.8Q 130.29000000000002-22.8  132.11000000000004-22.08Q 133.94000000000003-21.36  135.26000000000005-20.04Q 136.58000000000004-18.72  137.32000000000002-16.92Q 138.06000000000003-15.12  138.06000000000003-12.96L 138.06000000000003-12.96Q 138.06000000000003-11.9  137.58000000000004-11.45Q 137.10000000000002-10.99  136.24000000000004-10.9L 136.24000000000004-10.9ZM 128.08000000000004-19.68L 128.08000000000004-19.68Q 125.15000000000003-19.68  123.23000000000003-17.64Q 121.31000000000003-15.6  121.22000000000003-11.81L 121.22000000000003-11.81L 134.42000000000004-13.63Q 134.18000000000004-16.27  132.57000000000002-17.98Q 130.96000000000004-19.68  128.08000000000004-19.68Z"/>
</svg>